<svg width="16" height="16" viewBox="0 0 16 16" fill="none" xmlns="http://www.w3.org/2000/svg">
<path d="M15.9915 8.14967C15.9915 7.49416 15.9371 7.01581 15.8193 6.51974H8.1593V9.4784H12.6555C12.5649 10.2137 12.0754 11.321 10.9876 12.065L10.9723 12.1641L13.3943 13.9975L13.5621 14.0139C15.1031 12.6231 15.9915 10.5768 15.9915 8.14967" fill="#4285F4"/>
<path d="M8.1594 15.945C10.3622 15.945 12.2114 15.2363 13.5622 14.0139L10.9877 12.065C10.2987 12.5345 9.37409 12.8623 8.1594 12.8623C6.00194 12.8623 4.17082 11.4716 3.51807 9.54932L3.42239 9.55726L0.904028 11.4618L0.871094 11.5513C2.21271 14.1556 4.96848 15.945 8.1594 15.945Z" fill="#34A853"/>
<path d="M3.51805 9.5493C3.34582 9.05324 3.24614 8.5217 3.24614 7.97251C3.24614 7.42326 3.34582 6.89177 3.50899 6.39571L3.50443 6.29006L0.954506 4.35492L0.871077 4.3937C0.318134 5.47443 0.000854492 6.68805 0.000854492 7.97251C0.000854492 9.25697 0.318134 10.4705 0.871077 11.5513L3.51805 9.5493" fill="#FBBC05"/>
<path d="M8.15941 3.08272C9.69137 3.08272 10.7248 3.72937 11.314 4.26977L13.6165 2.07289C12.2024 0.788427 10.3622 3.05176e-05 8.15941 3.05176e-05C4.96848 3.05176e-05 2.21271 1.7894 0.871094 4.39374L3.50901 6.39576C4.17082 4.4735 6.00194 3.08272 8.15941 3.08272" fill="#EB4335"/>
</svg>
