<svg width="231" height="56" viewBox="0 0 231 56" fill="none" xmlns="http://www.w3.org/2000/svg">
<rect width="231" height="56" fill="#272729"/>
<path d="M26 9L6 31.5625L20.6667 32.75V47L42 22.0625H26V9Z" fill="#8B8DCF" stroke="#8B8DCF" stroke-linejoin="round"/>
<path d="M65.936 39.224C65.424 39.224 65.0293 39.0853 64.752 38.808C64.4747 38.5093 64.336 38.104 64.336 37.592V24.792C64.336 24.2587 64.4747 23.8533 64.752 23.576C65.0293 23.2987 65.4133 23.16 65.904 23.16C66.416 23.16 66.8 23.2987 67.056 23.576C67.3333 23.8533 67.472 24.2587 67.472 24.792V27.416L67.12 26.712C67.5467 25.5813 68.208 24.696 69.104 24.056C70 23.416 71.0773 23.096 72.336 23.096C73.6373 23.096 74.6933 23.4053 75.504 24.024C76.3147 24.6427 76.8693 25.592 77.168 26.872H76.72C77.1253 25.6987 77.8187 24.7813 78.8 24.12C79.7813 23.4373 80.9227 23.096 82.224 23.096C83.4187 23.096 84.4 23.3307 85.168 23.8C85.936 24.248 86.512 24.9413 86.896 25.88C87.28 26.7973 87.472 27.96 87.472 29.368V37.592C87.472 38.104 87.3227 38.5093 87.024 38.808C86.7467 39.0853 86.352 39.224 85.84 39.224C85.328 39.224 84.9333 39.0853 84.656 38.808C84.3787 38.5093 84.24 38.104 84.24 37.592V29.528C84.24 28.2053 84.0053 27.2347 83.536 26.616C83.088 25.9973 82.3413 25.688 81.296 25.688C80.1227 25.688 79.1947 26.0933 78.512 26.904C77.8293 27.7147 77.488 28.8347 77.488 30.264V37.592C77.488 38.104 77.3493 38.5093 77.072 38.808C76.7947 39.0853 76.4 39.224 75.888 39.224C75.376 39.224 74.9707 39.0853 74.672 38.808C74.3947 38.5093 74.256 38.104 74.256 37.592V29.528C74.256 28.2053 74.032 27.2347 73.584 26.616C73.136 25.9973 72.3893 25.688 71.344 25.688C70.1707 25.688 69.2427 26.0933 68.56 26.904C67.8987 27.7147 67.568 28.8347 67.568 30.264V37.592C67.568 38.68 67.024 39.224 65.936 39.224ZM98.2628 39.288C97.1748 39.288 96.1934 39.0747 95.3188 38.648C94.4654 38.2213 93.7934 37.6453 93.3028 36.92C92.8121 36.1947 92.5668 35.3733 92.5668 34.456C92.5668 33.304 92.8548 32.3973 93.4308 31.736C94.0281 31.0533 94.9988 30.5733 96.3428 30.296C97.7081 29.9973 99.5428 29.848 101.847 29.848H103.351V31.832H101.879C100.343 31.832 99.1268 31.9067 98.2308 32.056C97.3348 32.2053 96.6948 32.4613 96.3108 32.824C95.9481 33.1653 95.7668 33.6453 95.7668 34.264C95.7668 35.0747 96.0441 35.736 96.5988 36.248C97.1534 36.7387 97.9214 36.984 98.9028 36.984C99.6921 36.984 100.385 36.8027 100.983 36.44C101.58 36.056 102.049 35.544 102.391 34.904C102.753 34.264 102.935 33.528 102.935 32.696V29.016C102.935 27.8 102.679 26.9253 102.167 26.392C101.655 25.8587 100.812 25.592 99.6388 25.592C98.9561 25.592 98.2414 25.6773 97.4948 25.848C96.7694 26.0187 96.0121 26.3067 95.2228 26.712C94.8601 26.8827 94.5508 26.936 94.2948 26.872C94.0388 26.808 93.8361 26.6693 93.6868 26.456C93.5374 26.2213 93.4521 25.976 93.4308 25.72C93.4308 25.4427 93.4948 25.176 93.6228 24.92C93.7721 24.664 94.0174 24.472 94.3588 24.344C95.2974 23.896 96.2254 23.576 97.1428 23.384C98.0601 23.192 98.9241 23.096 99.7348 23.096C101.164 23.096 102.337 23.32 103.255 23.768C104.193 24.216 104.887 24.8987 105.335 25.816C105.783 26.7333 106.007 27.9173 106.007 29.368V37.592C106.007 38.104 105.879 38.5093 105.623 38.808C105.367 39.0853 104.993 39.224 104.503 39.224C104.033 39.224 103.66 39.0853 103.383 38.808C103.105 38.5093 102.967 38.104 102.967 37.592V35.512H103.255C103.084 36.3013 102.764 36.984 102.295 37.56C101.847 38.1147 101.281 38.5413 100.599 38.84C99.9161 39.1387 99.1374 39.288 98.2628 39.288ZM113.338 39.224C112.826 39.224 112.432 39.0853 112.154 38.808C111.877 38.5093 111.738 38.104 111.738 37.592V24.792C111.738 24.2587 111.877 23.8533 112.154 23.576C112.432 23.2987 112.816 23.16 113.306 23.16C113.818 23.16 114.202 23.2987 114.458 23.576C114.736 23.8533 114.874 24.2587 114.874 24.792V27.288L114.522 26.712C114.992 25.5173 115.728 24.6213 116.73 24.024C117.733 23.4053 118.885 23.096 120.186 23.096C121.424 23.096 122.448 23.3307 123.258 23.8C124.09 24.248 124.709 24.9413 125.114 25.88C125.52 26.7973 125.722 27.96 125.722 29.368V37.592C125.722 38.104 125.584 38.5093 125.306 38.808C125.029 39.0853 124.634 39.224 124.122 39.224C123.589 39.224 123.184 39.0853 122.906 38.808C122.629 38.5093 122.49 38.104 122.49 37.592V29.56C122.49 28.216 122.224 27.2347 121.69 26.616C121.178 25.9973 120.368 25.688 119.258 25.688C117.957 25.688 116.912 26.0933 116.122 26.904C115.354 27.7147 114.97 28.8027 114.97 30.168V37.592C114.97 38.68 114.426 39.224 113.338 39.224ZM137.408 39.288C136.042 39.288 134.837 38.968 133.792 38.328C132.768 37.6667 131.968 36.728 131.392 35.512C130.816 34.2747 130.528 32.8347 130.528 31.192C130.528 29.5067 130.816 28.0667 131.392 26.872C131.968 25.6773 132.768 24.7493 133.792 24.088C134.837 23.4267 136.042 23.096 137.408 23.096C138.773 23.096 139.946 23.4373 140.928 24.12C141.93 24.7813 142.602 25.6773 142.944 26.808H142.592V17.848C142.592 17.3147 142.73 16.9093 143.008 16.632C143.285 16.3547 143.68 16.216 144.192 16.216C144.704 16.216 145.098 16.3547 145.376 16.632C145.674 16.9093 145.824 17.3147 145.824 17.848V37.592C145.824 38.104 145.685 38.5093 145.408 38.808C145.13 39.0853 144.736 39.224 144.224 39.224C143.712 39.224 143.317 39.0853 143.04 38.808C142.762 38.5093 142.624 38.104 142.624 37.592V34.776L142.976 35.48C142.634 36.632 141.962 37.56 140.96 38.264C139.978 38.9467 138.794 39.288 137.408 39.288ZM138.24 36.792C139.114 36.792 139.882 36.5787 140.544 36.152C141.205 35.7253 141.717 35.096 142.08 34.264C142.464 33.432 142.656 32.408 142.656 31.192C142.656 29.3573 142.25 27.9707 141.44 27.032C140.629 26.0933 139.562 25.624 138.24 25.624C137.344 25.624 136.565 25.8373 135.904 26.264C135.242 26.6693 134.72 27.288 134.336 28.12C133.973 28.952 133.792 29.976 133.792 31.192C133.792 33.0053 134.197 34.392 135.008 35.352C135.818 36.312 136.896 36.792 138.24 36.792ZM156.634 39.288C155.546 39.288 154.565 39.0747 153.69 38.648C152.837 38.2213 152.165 37.6453 151.674 36.92C151.183 36.1947 150.938 35.3733 150.938 34.456C150.938 33.304 151.226 32.3973 151.802 31.736C152.399 31.0533 153.37 30.5733 154.714 30.296C156.079 29.9973 157.914 29.848 160.218 29.848H161.722V31.832H160.25C158.714 31.832 157.498 31.9067 156.602 32.056C155.706 32.2053 155.066 32.4613 154.682 32.824C154.319 33.1653 154.138 33.6453 154.138 34.264C154.138 35.0747 154.415 35.736 154.97 36.248C155.525 36.7387 156.293 36.984 157.274 36.984C158.063 36.984 158.757 36.8027 159.354 36.44C159.951 36.056 160.421 35.544 160.762 34.904C161.125 34.264 161.306 33.528 161.306 32.696V29.016C161.306 27.8 161.05 26.9253 160.538 26.392C160.026 25.8587 159.183 25.592 158.01 25.592C157.327 25.592 156.613 25.6773 155.866 25.848C155.141 26.0187 154.383 26.3067 153.594 26.712C153.231 26.8827 152.922 26.936 152.666 26.872C152.41 26.808 152.207 26.6693 152.058 26.456C151.909 26.2213 151.823 25.976 151.802 25.72C151.802 25.4427 151.866 25.176 151.994 24.92C152.143 24.664 152.389 24.472 152.73 24.344C153.669 23.896 154.597 23.576 155.514 23.384C156.431 23.192 157.295 23.096 158.106 23.096C159.535 23.096 160.709 23.32 161.626 23.768C162.565 24.216 163.258 24.8987 163.706 25.816C164.154 26.7333 164.378 27.9173 164.378 29.368V37.592C164.378 38.104 164.25 38.5093 163.994 38.808C163.738 39.0853 163.365 39.224 162.874 39.224C162.405 39.224 162.031 39.0853 161.754 38.808C161.477 38.5093 161.338 38.104 161.338 37.592V35.512H161.626C161.455 36.3013 161.135 36.984 160.666 37.56C160.218 38.1147 159.653 38.5413 158.97 38.84C158.287 39.1387 157.509 39.288 156.634 39.288ZM177.331 45.08C176.947 45.1013 176.638 45.0373 176.403 44.888C176.147 44.7387 175.976 44.5467 175.891 44.312C175.784 44.0773 175.752 43.832 175.795 43.576C175.816 43.3413 175.923 43.128 176.115 42.936C176.286 42.7653 176.52 42.6693 176.819 42.648C177.886 42.584 178.664 42.296 179.155 41.784C179.667 41.272 179.923 40.4613 179.923 39.352V24.792C179.923 24.2587 180.062 23.8533 180.339 23.576C180.638 23.2987 181.043 23.16 181.555 23.16C182.088 23.16 182.483 23.2987 182.739 23.576C183.016 23.8533 183.155 24.2587 183.155 24.792V39.096C183.155 40.4187 182.931 41.5067 182.483 42.36C182.056 43.2347 181.416 43.8853 180.563 44.312C179.71 44.7387 178.632 44.9947 177.331 45.08ZM181.555 19.896C180.915 19.896 180.414 19.736 180.051 19.416C179.71 19.096 179.539 18.648 179.539 18.072C179.539 17.4747 179.71 17.0267 180.051 16.728C180.414 16.408 180.915 16.248 181.555 16.248C182.195 16.248 182.686 16.408 183.027 16.728C183.368 17.0267 183.539 17.4747 183.539 18.072C183.539 18.648 183.368 19.096 183.027 19.416C182.686 19.736 182.195 19.896 181.555 19.896ZM195.766 39.288C194.187 39.288 192.822 38.9573 191.67 38.296C190.539 37.6347 189.654 36.696 189.014 35.48C188.374 34.264 188.054 32.8347 188.054 31.192C188.054 29.9333 188.235 28.8133 188.598 27.832C188.961 26.8507 189.473 26.008 190.134 25.304C190.817 24.5787 191.627 24.0347 192.566 23.672C193.526 23.288 194.593 23.096 195.766 23.096C197.323 23.096 198.667 23.4267 199.798 24.088C200.95 24.7493 201.846 25.688 202.486 26.904C203.126 28.0987 203.446 29.528 203.446 31.192C203.446 32.4293 203.265 33.5493 202.902 34.552C202.539 35.5547 202.017 36.408 201.334 37.112C200.673 37.816 199.862 38.36 198.902 38.744C197.963 39.1067 196.918 39.288 195.766 39.288ZM195.766 36.792C196.641 36.792 197.409 36.5787 198.07 36.152C198.731 35.7253 199.243 35.096 199.606 34.264C199.99 33.432 200.182 32.408 200.182 31.192C200.182 29.3573 199.777 27.9707 198.966 27.032C198.155 26.0933 197.089 25.624 195.766 25.624C194.87 25.624 194.091 25.8373 193.43 26.264C192.769 26.6693 192.246 27.288 191.862 28.12C191.499 28.952 191.318 29.976 191.318 31.192C191.318 33.0053 191.723 34.392 192.534 35.352C193.345 36.312 194.422 36.792 195.766 36.792ZM216.74 39.288C215.374 39.288 214.19 38.9467 213.188 38.264C212.185 37.56 211.513 36.632 211.172 35.48L211.524 34.904V37.592C211.524 38.104 211.385 38.5093 211.108 38.808C210.83 39.0853 210.446 39.224 209.956 39.224C209.444 39.224 209.049 39.0853 208.772 38.808C208.494 38.5093 208.356 38.104 208.356 37.592V17.848C208.356 17.3147 208.494 16.9093 208.772 16.632C209.049 16.3547 209.444 16.216 209.956 16.216C210.468 16.216 210.862 16.3547 211.14 16.632C211.438 16.9093 211.588 17.3147 211.588 17.848V26.808H211.204C211.545 25.6773 212.217 24.7813 213.22 24.12C214.222 23.4373 215.396 23.096 216.74 23.096C218.148 23.096 219.364 23.4267 220.388 24.088C221.412 24.7493 222.201 25.6773 222.756 26.872C223.332 28.0667 223.62 29.5067 223.62 31.192C223.62 32.8347 223.332 34.2747 222.756 35.512C222.201 36.728 221.401 37.6667 220.356 38.328C219.332 38.968 218.126 39.288 216.74 39.288ZM215.94 36.792C216.836 36.792 217.614 36.5787 218.276 36.152C218.937 35.7253 219.449 35.096 219.812 34.264C220.174 33.432 220.356 32.408 220.356 31.192C220.356 29.3573 219.95 27.9707 219.14 27.032C218.35 26.0933 217.284 25.624 215.94 25.624C215.065 25.624 214.286 25.8373 213.604 26.264C212.942 26.6693 212.43 27.288 212.068 28.12C211.705 28.952 211.524 29.976 211.524 31.192C211.524 33.0053 211.929 34.392 212.74 35.352C213.55 36.312 214.617 36.792 215.94 36.792Z" fill="white"/>
</svg>
